PathFileType	4	(X/Y/Z)	/Users/itak/Documents/Research/Walk-IL/dataset/trc/00128_00007.trc
DataRate	CameraRate	NumFrames	NumMarkers	Units	OrigDataRate	OrigDataStartFrame	OrigNumFrames
100.000000	100.000000	4	53	mm	100.000000	438	877
Frame#	Time	RPSI			LPSI			L3			STRN			T10			C7			CLAV			RBAK			LBAK			LSHO			LUPA			LAEL			LAOL			LWTS			LWPS			LFRA			LIFD			LHPS			LHTS			RSHO			RUPA			RAEL			RAOL			RWTS			RWPS			RFRA			RIFD			RHTS			RHPS			RBHD			LFHD			RFHD			LBHD			LHIP			RHIP			RASI			LASI			LKNE			LTHI			LANK			LTIP			LTOE			LMT1			LMT5			LHEE			RKNE			RTHI			RANK			RTIP			RTOE			RMT1			RMT5			RHEE			
		X1	Y1	Z1	X2	Y2	Z2	X3	Y3	Z3	X4	Y4	Z4	X5	Y5	Z5	X6	Y6	Z6	X7	Y7	Z7	X8	Y8	Z8	X9	Y9	Z9	X10	Y10	Z10	X11	Y11	Z11	X12	Y12	Z12	X13	Y13	Z13	X14	Y14	Z14	X15	Y15	Z15	X16	Y16	Z16	X17	Y17	Z17	X18	Y18	Z18	X19	Y19	Z19	X20	Y20	Z20	X21	Y21	Z21	X22	Y22	Z22	X23	Y23	Z23	X24	Y24	Z24	X25	Y25	Z25	X26	Y26	Z26	X27	Y27	Z27	X28	Y28	Z28	X29	Y29	Z29	X30	Y30	Z30	X31	Y31	Z31	X32	Y32	Z32	X33	Y33	Z33	X34	Y34	Z34	X35	Y35	Z35	X36	Y36	Z36	X37	Y37	Z37	X38	Y38	Z38	X39	Y39	Z39	X40	Y40	Z40	X41	Y41	Z41	X42	Y42	Z42	X43	Y43	Z43	X44	Y44	Z44	X45	Y45	Z45	X46	Y46	Z46	X47	Y47	Z47	X48	Y48	Z48	X49	Y49	Z49	X50	Y50	Z50	X51	Y51	Z51	X52	Y52	Z52	X53	Y53	Z53	

439	4.38	255.7994995117188	1103.183227539062	-357.0967102050781	327.3593139648438	1112.873657226562	-470.454345703125	283.88623046875	1144.55078125	-417.0452575683594	466.0577087402344	1344.764282226562	-287.9229736328125	254.0260009765625	1296.184692382812	-417.3573913574219	283.3953247070312	1588.7822265625	-403.3516845703125	438.0776977539062	1480.038940429688	-308.3824462890625	194.9223785400391	1403.517211914062	-359.7872314453125	327.0413513183594	1572.360473632812	-494.8084411621094	436.1638793945312	1560.422119140625	-515.3472290039062	441.8395080566406	1430.747924804688	-593.6151733398438	442.02001953125	1213.100463867188	-619.906005859375	357.1824035644531	1206.315673828125	-593.6598510742188	493.8947143554688	946.5037231445312	-555.994873046875	427.07421875	928.7548217773438	-613.2341918945312	448.4719848632812	1095.955810546875	-623.8945922851562	472.5688781738281	751.15380859375	-536.904052734375	445.6450805664062	850.532470703125	-606.0943603515625	502.2544555664062	855.0762939453125	-564.1572875976562	242.9595642089844	1564.00830078125	-218.4299011230469	197.3795013427734	1488.620483398438	-172.7123413085938	196.4137878417969	1190.6787109375	-158.1739044189453	233.7050323486328	1191.728881835938	-247.9722900390625	378.5426330566406	988.0377807617188	-88.07125854492188	305.5084228515625	952.1759643554688	-92.90345001220703	223.8531188964844	1121.63134765625	-129.0341644287109	457.3032531738281	808.9381103515625	-75.71754455566406	427.418701171875	891.2758178710938	-59.9973258972168	359.6856384277344	864.6142578125	-64.45858001708984	284.0249938964844	1757.89013671875	-313.1654357910156	493.5859680175781	1815.068359375	-284.6356201171875	404.1849975585938	1802.812744140625	-190.1367645263672	368.7682189941406	1775.15478515625	-414.04296875	476.25244140625	1034.534057617188	-502.9176330566406	291.3030700683594	999.5247802734375	-192.5506134033203	384.763916015625	1078.85302734375	-182.5917663574219	532.814697265625	1099.0322265625	-405.9189758300781	658.3785400390625	573.02001953125	-364.7388305664062	606.9381713867188	705.4453735351562	-432.7390747070312	573.4317016601562	77.69432067871094	-535.578857421875	602.1416625976562	334.4968872070312	-493.412841796875	734.6112670898438	57.29964065551758	-375.5694885253906	651.7395629882812	55.07314682006836	-383.7920837402344	688.4979248046875	65.49289703369141	-491.7577819824219	482.8932800292969	77.68556976318359	-520.5704345703125	329.8038330078125	515.717529296875	-313.3050842285156	322.4258728027344	785.2592163085938	-223.1257629394531	281.0083312988281	27.79679679870605	-472.1376037597656	310.4977722167969	384.0458068847656	-342.3698425292969	514.3945922851562	40.79698944091797	-423.1206970214844	476.1017761230469	38.57364273071289	-486.7005920410156	393.7819519042969	37.96148681640625	-396.5677795410156	248.7871551513672	31.40010643005371	-539.5217895507812	
440	4.39	262.3211975097656	1102.980224609375	-355.4890441894531	335.8891296386719	1112.830322265625	-467.4764709472656	291.7737426757812	1144.340698242188	-414.7647094726562	471.6602172851562	1344.22900390625	-282.3450927734375	261.7008056640625	1295.900390625	-415.1006164550781	291.0266418457031	1588.4609375	-400.3858947753906	444.2102661132812	1479.573852539062	-303.1615600585938	201.3779602050781	1403.310913085938	-358.4251708984375	336.0327453613281	1572.094970703125	-491.21875	445.3975524902344	1560.130249023438	-510.1705017089844	452.2033996582031	1430.561767578125	-588.5059204101562	452.6971740722656	1213.009521484375	-615.2188720703125	367.4606323242188	1206.17431640625	-590.2239990234375	503.4565734863281	946.193603515625	-551.1618041992188	437.5291442871094	928.6339721679688	-609.4273681640625	459.1757507324219	1095.859497070312	-619.3911743164062	481.7803955078125	750.7818603515625	-532.7911987304688	455.9227294921875	850.3758544921875	-602.1730346679688	511.8823852539062	854.81298828125	-559.3969116210938	247.8097076416016	1563.669677734375	-216.1289215087891	201.6106872558594	1488.22705078125	-171.0627746582031	201.2304077148438	1190.188598632812	-156.5299530029297	239.3620300292969	1191.151000976562	-245.8504943847656	383.1836242675781	987.7462768554688	-84.87558746337891	310.2319946289062	951.647216796875	-90.54042053222656	228.5419616699219	1121.220947265625	-127.0845031738281	461.8370666503906	808.6077270507812	-72.25825500488281	431.8835144042969	890.9594116210938	-56.61573791503906	364.1709289550781	864.2763061523438	-61.50535583496094	290.6363525390625	1757.7001953125	-310.1714782714844	500.0530700683594	1814.522216796875	-279.512939453125	409.7261352539062	1802.555541992188	-185.8747100830078	376.5526428222656	1774.6318359375	-410.1609191894531	485.2785339355469	1034.522583007812	-497.8954162597656	294.7214660644531	999.0341796875	-190.41259765625	388.3660583496094	1078.161743164062	-178.6346435546875	539.967041015625	1098.714599609375	-399.5583190917969	665.4594116210938	573.8490600585938	-356.2130432128906	614.671630859375	705.6033325195312	-425.333251953125	599.8043212890625	71.49503326416016	-512.8643188476562	619.0704345703125	330.5419311523438	-479.2437744140625	756.8103637695312	60.78402709960938	-347.8121032714844	674.3544921875	55.86570358276367	-358.2606811523438	713.8842163085938	63.77034759521484	-465.5500183105469	508.8276977539062	69.428466796875	-500.1156311035156	333.4132385253906	515.2520751953125	-311.4358825683594	325.7806396484375	784.7427978515625	-220.9056091308594	281.1749572753906	28.03399848937988	-472.4919738769531	313.4676208496094	383.6119689941406	-341.2171020507812	514.3712158203125	40.78797912597656	-422.7742614746094	476.0573120117188	38.55138778686523	-486.4280395507812	393.6568603515625	37.94070816040039	-396.4470825195312	249.0819702148438	31.81224250793457	-540.00439453125	
441	4.4	268.8363342285156	1102.656494140625	-353.6766967773438	344.4176330566406	1112.633056640625	-464.3030090332031	299.6845092773438	1144.004516601562	-412.2799682617188	477.2705078125	1343.561645507812	-276.740478515625	269.3679504394531	1295.529174804688	-412.73046875	298.6972961425781	1588.032104492188	-397.2843933105469	450.3601684570312	1478.985229492188	-297.865234375	207.7805480957031	1403.022827148438	-356.9463500976562	345.0514526367188	1571.735595703125	-487.4814147949219	454.61865234375	1559.713623046875	-504.836181640625	462.5552673339844	1430.276000976562	-583.2452392578125	463.4402465820312	1212.831665039062	-610.4363403320312	377.8315734863281	1205.918701171875	-586.7150268554688	513.2048950195312	945.8190307617188	-546.27587890625	448.201904296875	928.422119140625	-605.5633544921875	470.0137939453125	1095.68505859375	-614.8037109375	491.2962646484375	750.3364868164062	-528.6620483398438	466.4457092285156	850.1312866210938	-598.1973266601562	521.7391357421875	854.4845581054688	-554.5963134765625	252.7497406005859	1563.229614257812	-213.7188873291016	205.9495239257812	1487.733642578125	-169.3442687988281	206.0165252685547	1189.599731445312	-154.8872985839844	245.1325378417969	1190.501220703125	-243.7149505615234	387.662353515625	987.2605590820312	-81.64503479003906	314.7681274414062	950.9552612304688	-88.23173522949219	233.1591796875	1120.688598632812	-125.1420211791992	466.1338806152344	808.0587768554688	-68.76718139648438	436.1318969726562	890.428955078125	-53.1917610168457	368.4417724609375	863.7359008789062	-58.60071563720703	297.3009948730469	1757.359741210938	-307.0959167480469	506.5148620605469	1813.914916992188	-274.3359680175781	415.2787780761719	1802.261962890625	-181.5697021484375	384.3592224121094	1773.965454101562	-406.180419921875	494.1515808105469	1034.349609375	-492.8264770507812	298.3101806640625	998.4641723632812	-188.1310272216797	392.0999145507812	1077.378295898438	-174.6764526367188	547.0165405273438	1098.23388671875	-393.2200317382812	672.272216796875	574.3877563476562	-348.2636413574219	622.0775756835938	705.466552734375	-418.3534545898438	625.10595703125	65.87992095947266	-489.1914367675781	635.2982788085938	326.7304992675781	-464.8628234863281	777.5864868164062	64.51569366455078	-319.5721740722656	695.6441650390625	57.23990631103516	-332.1180419921875	737.986083984375	62.29146194458008	-438.5685729980469	533.7384643554688	61.9608039855957	-478.5849304199219	337.2496948242188	514.7113647460938	-309.4470520019531	329.3142395019531	784.144775390625	-218.5751342773438	281.392822265625	28.29758453369141	-472.9190673828125	316.6478576660156	383.112548828125	-339.9769287109375	514.3721313476562	40.76108551025391	-422.4588928222656	476.0308837890625	38.47199249267578	-486.1836853027344	393.52880859375	37.94655990600586	-396.3457946777344	249.4554290771484	32.29255294799805	-540.5316772460938	
442	4.41	275.3668518066406	1102.193115234375	-351.6586303710938	352.9437255859375	1112.256469726562	-460.9354553222656	307.5838317871094	1143.531494140625	-409.6014099121094	482.8952026367188	1342.754150390625	-271.1075439453125	277.0334777832031	1295.057006835938	-410.2402648925781	306.403564453125	1587.490234375	-394.0458679199219	456.5331726074219	1478.262329101562	-292.4983215332031	214.1512756347656	1402.647827148438	-355.3433837890625	354.0890808105469	1571.267944335938	-483.5942077636719	463.8197937011719	1559.156005859375	-499.3449096679688	472.8839416503906	1429.87744140625	-577.8438720703125	474.2359008789062	1212.558715820312	-605.5672607421875	388.2742919921875	1205.5400390625	-583.12841796875	523.130859375	945.3731689453125	-541.3345336914062	459.0715637207031	928.1055297851562	-601.6242065429688	480.9628295898438	1095.423461914062	-610.1375732421875	501.128173828125	749.8200073242188	-524.5020751953125	477.20361328125	849.790283203125	-594.1549682617188	531.8287963867188	854.088134765625	-549.756103515625	257.7898559570312	1562.679443359375	-211.1912384033203	210.4204711914062	1487.134521484375	-167.5558624267578	210.7647552490234	1188.903076171875	-153.2394256591797	250.9734039306641	1189.79736328125	-241.5613708496094	391.96240234375	986.5772705078125	-78.38521575927734	319.1142578125	950.1163940429688	-85.94194793701172	237.7018280029297	1120.024536132812	-123.2018051147461	470.2094421386719	807.300048828125	-65.22954559326172	440.1669006347656	889.6881103515625	-49.71711730957031	372.50732421875	862.992431640625	-55.73519515991211	304.0378723144531	1756.856567382812	-303.9415893554688	512.9694213867188	1813.240966796875	-269.1022644042969	420.8422546386719	1801.918334960938	-177.2235717773438	392.1898498535156	1773.142822265625	-402.1079406738281	502.8949279785156	1033.99755859375	-487.6720581054688	302.0716552734375	997.8053588867188	-185.6919555664062	395.938232421875	1076.500366210938	-170.7103424072266	553.9894409179688	1097.580932617188	-386.8742370605469	678.8564453125	574.6117553710938	-340.8915405273438	629.2073364257812	705.0281372070312	-411.7956848144531	649.2494506835938	60.8277473449707	-464.7289733886719	650.8101196289062	323.0780639648438	-450.3526000976562	797.0059814453125	68.50509643554688	-291.0695495605469	715.6187744140625	59.21399307250977	-305.5844116210938	760.781494140625	61.06986618041992	-410.9939575195312	557.5420532226562	55.30757904052734	-456.1700439453125	341.2772521972656	514.1056518554688	-307.3577270507812	333.0201110839844	783.4638671875	-216.1351318359375	281.6653442382812	28.59901237487793	-473.4213562011719	320.0111083984375	382.5641174316406	-338.6623229980469	514.4277954101562	40.69855499267578	-422.179443359375	476.0643920898438	38.33821868896484	-485.9697570800781	393.43310546875	37.97404861450195	-396.2767639160156	249.9023590087891	32.86392211914062	-541.1094360351562	
